<svg id="b80dd5db-9539-4825-9e54-8e87a2f01b30" data-name="Layer 1" xmlns="http://www.w3.org/2000/svg" viewBox="0 0 1976.72 398.84"><defs><style>.a02134f5-8044-46ae-ae7a-ff6594c826bd{fill:#008bd2;}.b9ddea4f-1d85-4eba-b8fc-171c66a5dd31{fill:#005ca9;}.b0d63780-0ca9-4c3f-b625-c43fa77fe6c1{fill:#164194;}.e50fb5de-baa8-490c-99d5-ae7082270b81{fill:#009fe3;}.bd33d4f8-d8a3-4a2a-8196-41832a020361{fill:#0075bf;}.f12cb128-61fe-4260-9c64-3d051eca5de2{fill:#ee7d00;}.bd8b514b-ec6c-46b9-8ed3-aebff6393ce6{fill:#009bb4;}</style></defs><path d="M533.71,156.5c0-11.54,1.53-32.12,17.24-32.12,12.24,0,15.85,9.87,16,20.44l23.36-1.53c-2.5-22.94-14.74-36.84-38.65-36.84-28.65,0-42.83,22.66-42.83,49.08,0,26,13.76,49.09,42.13,49.09,22,0,37-12.93,39.35-34.77l-21.69-1.39c-1.25,9.18-6.12,17.94-16.55,17.94-16.82,0-18.35-16.83-18.35-29.9M481.6,126.74h23.92V107.83H435.16v18.91h24.19v76.49H481.6V126.74Zm-62.14,67.87c7.93-7.79,7.79-18.64,7.79-29.07V107.83H408.06v57.71c0,5,.41,11.68-2.64,16-2.79,3.76-9.32,5.15-13.77,5.15-5.42,0-11.4-1.39-14.32-6.4-2.23-3.89-2.09-10.29-2.09-14.74V107.83H351v57.71c0,11.68.42,22.67,9.88,30.87,7.64,6.68,19.19,8.21,29.2,8.21,10.43,0,21.69-2.37,29.34-10"/><polygon class="a02134f5-8044-46ae-ae7a-ff6594c826bd" points="178.68 322.35 147.02 102.7 103.84 108.93 134.6 322.35 178.68 322.35"/><polygon class="b9ddea4f-1d85-4eba-b8fc-171c66a5dd31" points="222.67 322.35 253.59 108.94 210.41 102.69 178.59 322.35 222.67 322.35"/><path class="b0d63780-0ca9-4c3f-b625-c43fa77fe6c1" d="M245.78,322.34c7-25.44,20.72-74.11,28-93.77,4.87-13.23,24.23-53.93,31.28-68.5l-39.27-19c-2.69,5.56-26.47,54.81-33,72.46-9.28,25.23-27.28,90.57-32.27,108.82Z"/><polygon class="e50fb5de-baa8-490c-99d5-ae7082270b81" points="61.56 230.64 61.56 230.64 98.29 322.35 145.29 322.35 102.06 214.41 61.56 230.64"/><rect class="bd33d4f8-d8a3-4a2a-8196-41832a020361" x="156.9" y="73.64" width="43.63" height="248.7"/><polygon class="b9ddea4f-1d85-4eba-b8fc-171c66a5dd31" points="156.9 322.35 178.68 322.35 156.9 171.22 156.9 322.35"/><polygon class="b0d63780-0ca9-4c3f-b625-c43fa77fe6c1" points="178.59 322.35 200.53 322.35 200.53 170.89 178.59 322.35"/><polygon class="bd33d4f8-d8a3-4a2a-8196-41832a020361" points="134.6 322.35 145.29 322.35 128.59 280.65 134.6 322.35"/><path d="M856.56,108H796.38v95.12h61.56V192.83H808.31V158h38.26v-9.56H808.31V118.23h48.25Zm-129.87,0H714.77v95.12h11.92v-45.2h44.1v45.2h11.92V108H770.79v39.52h-44.1ZM638.4,175.08l-10.68,2.36c6.38,18.44,19.14,27,38.55,27,8.6,0,17.88-1.67,24.82-6.94a26.66,26.66,0,0,0,10.67-21.63,23.47,23.47,0,0,0-8.87-18.86c-4.85-4.15-11.09-6-17.33-7.35l-14.29-3.46c-8.87-2.08-17.19-4.44-17.19-15.11,0-10.4,11.37-15.12,20.39-15.12,10.12,0,21.21,6.38,23.29,16.78l10.81-2.91c-5.13-15.39-17.88-23.29-33.83-23.29-16.5,0-32.3,7.9-32.3,26.2a23.63,23.63,0,0,0,7.76,17.61c5,4.57,10.82,6.1,17.2,7.62l15.8,3.89c8.32,2.08,16.22,6,16.22,15.53a15.89,15.89,0,0,1-5.82,12.2c-4.44,3.47-11.37,4.71-17.06,4.71-13.31,0-24.26-6.1-28.14-19.27m244.43-56.85h46.3V108H870.9v95.12h11.93V158h38.4v-9.56h-38.4Zm68.93,0h46.31V108H939.83v95.12h11.93V158h38.4v-9.56h-38.4Zm57,84.86h11.93V108h-11.93Zm27.71,0H1098V192.83h-49.64V158h38.27v-9.56h-38.27V118.23h48.25V108h-60.17Zm73.37,0H1166V192.55h-44.23V108h-11.92Zm129-47.84c0,8.6-2.22,18.45-6.93,25.65C1225.7,190.47,1217,193,1206,193h-17.47V118H1206c10,0,17.61,1.52,24.12,9.7,6.24,7.77,8.74,17.89,8.74,27.59m12.06,0c0-12.34-3.32-24.26-11.51-33.83-9-10.67-19.13-13.45-32.72-13.45h-30.08v95.12h34c13,0,22.88-4.44,30.51-15.12,6.79-9.56,9.84-21.07,9.84-32.72"/><path class="f12cb128-61fe-4260-9c64-3d051eca5de2" d="M392.63,325.18q-13.62,0-22.83-4.26A40.74,40.74,0,0,1,355,309.79a42.9,42.9,0,0,1-8.08-15.59,64.18,64.18,0,0,1-2.48-17.61,65,65,0,0,1,2.48-17.69A42.79,42.79,0,0,1,355,243.26a40.74,40.74,0,0,1,14.82-11.13q9.21-4.26,22.83-4.26,13.35,0,22.58,4.26A40.82,40.82,0,0,1,430,243.26a42.93,42.93,0,0,1,8.07,15.64,64.57,64.57,0,0,1,2.48,17.69,63.8,63.8,0,0,1-2.48,17.61A43,43,0,0,1,430,309.79a40.82,40.82,0,0,1-14.82,11.13Q406,325.18,392.63,325.18Zm0-24.55a13.2,13.2,0,0,0,11.45-6.11q4.2-6.11,4.2-17.93t-4.2-18.07a13.19,13.19,0,0,0-11.45-6.1,13.39,13.39,0,0,0-11.7,6.1q-4.2,6.11-4.2,18.07t4.2,17.93A13.4,13.4,0,0,0,392.63,300.63Z"/><path class="f12cb128-61fe-4260-9c64-3d051eca5de2" d="M447.71,300V253.05h-5.85c-.17-2-.3-3.85-.38-5.72s-.13-3.77-.13-5.72,0-3.86.13-5.73.21-3.77.38-5.72h42.23q.26,2.93.38,5.72c.09,1.87.13,3.77.13,5.73s0,3.85-.13,5.72-.21,3.77-.38,5.72h-7.25v46.56h15.52V284.85q3.18-.24,6.36-.38t6.49-.12q3.3,0,6.42.12t6.42.38v38H441.86q-.25-2.92-.38-5.73c-.09-1.86-.13-3.77-.13-5.72s0-3.86.13-5.72.21-3.78.38-5.73Z"/><path class="f12cb128-61fe-4260-9c64-3d051eca5de2" d="M530.9,300V287.15l-25.06-34.1h-6.36c-.17-2-.3-3.85-.38-5.72s-.13-3.77-.13-5.72,0-3.86.13-5.73.21-3.77.38-5.72H543c.17,1.86.3,3.71.39,5.53s.12,3.67.12,5.53,0,3.69-.12,5.47-.22,3.61-.39,5.47h-4.45l8.53,15.39,9.16-15.39h-4.33c-.17-1.86-.3-3.69-.38-5.47s-.13-3.6-.13-5.47,0-3.71.13-5.53.21-3.67.38-5.53h41.34q.25,2.93.38,5.72c.09,1.87.13,3.77.13,5.73s0,3.85-.13,5.72-.21,3.77-.38,5.72h-6.36l-25.06,34.1V300h7.38c.17,1.95.29,3.86.38,5.73s.13,3.77.13,5.72-.05,3.86-.13,5.72-.21,3.78-.38,5.73H523.52c-.17-1.95-.29-3.86-.38-5.73s-.13-3.77-.13-5.72,0-3.86.13-5.72.21-3.78.38-5.73Z"/><path class="f12cb128-61fe-4260-9c64-3d051eca5de2" d="M605.7,300V253.05h-5.85c-.18-2-.3-3.85-.39-5.72s-.12-3.77-.12-5.72,0-3.86.12-5.73.21-3.77.39-5.72H640l15.9,51.39,16-51.39h40.2c.17,2,.29,3.86.38,5.72s.13,3.77.13,5.73,0,3.85-.13,5.72-.21,3.77-.38,5.72h-5.85V300h5.85c.17,1.95.29,3.86.38,5.73s.13,3.77.13,5.72,0,3.86-.13,5.72-.21,3.78-.38,5.73H677.82V273.53L665.1,321H645.77l-12.72-47.45v49.36h-33.2c-.18-1.95-.3-3.86-.39-5.73s-.12-3.77-.12-5.72,0-3.86.12-5.72.21-3.78.39-5.73Z"/><path class="f12cb128-61fe-4260-9c64-3d051eca5de2" d="M724.63,300V253.05h-5.85c-.17-2-.3-3.85-.38-5.72s-.13-3.77-.13-5.72,0-3.86.13-5.73.21-3.77.38-5.72H767.5A36.72,36.72,0,0,1,781,232.45a28.24,28.24,0,0,1,9.86,6.29,26.11,26.11,0,0,1,6,9.35,32.18,32.18,0,0,1,2,11.58,37.48,37.48,0,0,1-1.59,10.62,26.25,26.25,0,0,1-5.28,9.73,27.47,27.47,0,0,1-9.67,7.06q-6,2.73-14.88,2.73H753.25V300h12q.25,2.92.38,5.73c.09,1.86.13,3.77.13,5.72s0,3.86-.13,5.72-.21,3.78-.38,5.73H718.78q-.25-2.92-.38-5.73c-.09-1.86-.13-3.77-.13-5.72s0-3.86.13-5.72.21-3.78.38-5.73Zm38.55-32.56a6,6,0,0,0,4.7-2,7.77,7.77,0,0,0,1.78-5.41,7.94,7.94,0,0,0-1.78-5.22,5.79,5.79,0,0,0-4.7-2.16h-9.93v14.76Z"/><path class="f12cb128-61fe-4260-9c64-3d051eca5de2" d="M807.82,300V253.05H802c-.17-2-.29-3.85-.38-5.72s-.13-3.77-.13-5.72,0-3.86.13-5.73.21-3.77.38-5.72h42.62c.17,2,.29,3.86.38,5.72s.13,3.77.13,5.73-.05,3.85-.13,5.72-.21,3.77-.38,5.72h-5.85V300h5.85c.17,1.95.29,3.86.38,5.73s.13,3.77.13,5.72-.05,3.86-.13,5.72-.21,3.78-.38,5.73H802c-.17-1.95-.29-3.86-.38-5.73s-.13-3.77-.13-5.72,0-3.86.13-5.72.21-3.78.38-5.73Z"/><path class="f12cb128-61fe-4260-9c64-3d051eca5de2" d="M900.81,263.48q0-5.34-2.29-8.2t-6.87-2.86q-13.49,0-13.48,22.38a34.86,34.86,0,0,0,1.4,10.69,16.57,16.57,0,0,0,4.19,7,16.75,16.75,0,0,0,6.81,3.88,32.21,32.21,0,0,0,9.22,1.2,43.74,43.74,0,0,0,10.05-1.08,45.46,45.46,0,0,0,8.14-2.67,39.87,39.87,0,0,0,6.11-3.31q2.55-1.71,3.94-2.86v30.4c-.85.43-2.12,1-3.81,1.85a42.37,42.37,0,0,1-6.62,2.35,84.85,84.85,0,0,1-9.79,2,88.49,88.49,0,0,1-13.36.89q-23.91,0-36.25-12.72t-12.34-35.75a63.88,63.88,0,0,1,3-20.1,46.36,46.36,0,0,1,8.39-15.45,36.53,36.53,0,0,1,13-9.86A40,40,0,0,1,887,227.87q7.62,0,11.83,1.71a44.26,44.26,0,0,1,6.61,3.25v-2.67q2.93-.25,5.79-.39c1.91-.08,3.83-.12,5.79-.12s3.9,0,5.85.12,3.9.22,5.85.39v43.5q-3.57.25-7.06.38t-6.93.13q-3.57,0-7-.13t-6.87-.38Z"/><path class="bd8b514b-ec6c-46b9-8ed3-aebff6393ce6" d="M964.16,300V253.06h-5.85q-.25-2.92-.38-5.73c-.09-1.86-.13-3.77-.13-5.72s0-3.86.13-5.72.21-3.78.38-5.73h42.23q.26,2.93.38,5.73c.09,1.86.13,3.77.13,5.72s0,3.86-.13,5.72-.21,3.78-.38,5.73h-7.25v46.56h15.52V284.86q3.18-.25,6.36-.38t6.49-.13q3.3,0,6.42.13t6.42.38v38H958.31c-.17-1.95-.3-3.85-.38-5.72s-.13-3.77-.13-5.72,0-3.86.13-5.73.21-3.77.38-5.72Z"/><path class="bd8b514b-ec6c-46b9-8ed3-aebff6393ce6" d="M1046.46,300V253.06h-5.85q-.25-2.92-.38-5.73c-.09-1.86-.13-3.77-.13-5.72s0-3.86.13-5.72.21-3.78.38-5.73h80v28.37q-3.43.25-6.87.38c-2.29.08-4.58.13-6.87.13s-4.58-.05-6.87-.13-4.58-.21-6.86-.38v-5.34h-15.78v10.55h30.28c.17,2,.29,4.07.38,6.11s.13,4,.13,6-.05,4.05-.13,6-.21,4-.38,5.91h-30.28v11.33h16.41v-5.85q6.1-.39,12.47-.39c2.54,0,5.06.05,7.56.13s5,.21,7.57.38v29.51h-80.77c-.17-1.95-.3-3.85-.38-5.72s-.13-3.77-.13-5.72,0-3.86.13-5.73.21-3.77.38-5.72Z"/><path class="bd8b514b-ec6c-46b9-8ed3-aebff6393ce6" d="M1179.39,292.75h-5.22c-.17-1.95-.29-3.82-.38-5.6s-.13-3.6-.13-5.47,0-3.71.13-5.53.21-3.71.38-5.67h40.46c.17,2,.29,3.84.38,5.67s.13,3.67.13,5.53-.05,3.69-.13,5.47-.21,3.65-.38,5.6h-4.33v23.91q-1,.51-4.26,1.91a70.86,70.86,0,0,1-8.33,2.86,108.45,108.45,0,0,1-11.83,2.61,88.84,88.84,0,0,1-14.76,1.14q-12.72,0-21.81-3.69a39.3,39.3,0,0,1-23.73-25.56,64.38,64.38,0,0,1-2.8-19.34,61.48,61.48,0,0,1,3.06-19.84,43.85,43.85,0,0,1,8.71-15.39,39.8,39.8,0,0,1,13.61-9.93,43.33,43.33,0,0,1,17.87-3.56,45.1,45.1,0,0,1,10.94,1.4,30.81,30.81,0,0,1,9.16,3.69v-2.8q5.85-.37,11.83-.38c3.56,0,7.13.13,10.69.38v35.49q-3.57.25-7.06.38t-6.94.13q-3.56,0-7-.13t-6.87-.38v-4.83a8.3,8.3,0,0,0-2.67-6.24c-1.78-1.69-4.29-2.54-7.51-2.54a12.12,12.12,0,0,0-6.61,1.85,15.21,15.21,0,0,0-4.9,5.08,25.78,25.78,0,0,0-3,7.7,43.86,43.86,0,0,0-1,9.79,38.7,38.7,0,0,0,1.47,11.52,20.92,20.92,0,0,0,3.94,7.5,14.08,14.08,0,0,0,5.6,4.07,17.46,17.46,0,0,0,6.42,1.21,37.66,37.66,0,0,0,4.52-.25,13.17,13.17,0,0,0,2.35-.39Z"/><path class="bd8b514b-ec6c-46b9-8ed3-aebff6393ce6" d="M1223.15,300l23.66-69.84h39.56L1309,300h6.36q.26,2.92.38,5.72c.09,1.87.13,3.78.13,5.73s0,3.86-.13,5.72-.21,3.77-.38,5.72H1271.1c-.17-1.69-.29-3.41-.38-5.15s-.13-3.45-.13-5.15.05-3.37.13-5,.21-3.33.38-5h5.22l-1.53-6.87H1256l-1.53,6.87h5.22c.17,1.7.29,3.37.38,5s.13,3.32.13,5-.05,3.42-.13,5.15-.21,3.46-.38,5.15h-43.38c-.17-1.95-.3-3.85-.38-5.72s-.13-3.77-.13-5.72,0-3.86.13-5.73.21-3.77.38-5.72Zm48.21-24.55-5.6-22-6,22Z"/><path class="bd8b514b-ec6c-46b9-8ed3-aebff6393ce6" d="M1369.05,263.49q0-5.34-2.29-8.21c-1.52-1.9-3.81-2.86-6.87-2.86q-13.48,0-13.48,22.39a35.15,35.15,0,0,0,1.4,10.68,16.36,16.36,0,0,0,4.2,7,16.54,16.54,0,0,0,6.8,3.88,31.87,31.87,0,0,0,9.23,1.21,43.72,43.72,0,0,0,10-1.08,45.84,45.84,0,0,0,8.15-2.67,39.73,39.73,0,0,0,6.1-3.31c1.7-1.14,3-2.1,4-2.86v30.4c-.85.43-2.13,1-3.82,1.84a42.94,42.94,0,0,1-6.62,2.36,84.59,84.59,0,0,1-9.79,2,87.2,87.2,0,0,1-13.36.89q-23.91,0-36.25-12.72t-12.34-35.74a63.79,63.79,0,0,1,3-20.1,46.25,46.25,0,0,1,8.4-15.46,36.26,36.26,0,0,1,13-9.85,40,40,0,0,1,16.73-3.44q7.63,0,11.83,1.72a43.87,43.87,0,0,1,6.61,3.24v-2.67c1.95-.17,3.88-.29,5.79-.38s3.84-.13,5.79-.13,3.9,0,5.85.13,3.9.21,5.85.38v43.51c-2.37.17-4.73.29-7.06.38s-4.64.13-6.93.13-4.71-.05-7-.13-4.58-.21-6.87-.38Z"/><path class="bd8b514b-ec6c-46b9-8ed3-aebff6393ce6" d="M1433.8,300V287.15l-25.06-34.09h-6.36q-.26-2.92-.38-5.73c-.09-1.86-.13-3.77-.13-5.72s0-3.86.13-5.72.21-3.78.38-5.73h43.5c.17,1.87.3,3.71.39,5.53s.12,3.67.12,5.54,0,3.69-.12,5.47-.22,3.6-.39,5.47h-4.45l8.53,15.39,9.16-15.39h-4.33c-.17-1.87-.3-3.69-.38-5.47s-.13-3.61-.13-5.47,0-3.71.13-5.54.21-3.66.38-5.53h41.34q.25,2.93.38,5.73c.09,1.86.13,3.77.13,5.72s0,3.86-.13,5.72-.21,3.78-.38,5.73h-6.36l-25.06,34.09V300h7.38c.17,1.95.29,3.86.38,5.72s.13,3.78.13,5.73,0,3.86-.13,5.72-.21,3.77-.38,5.72h-45.67c-.17-1.95-.29-3.85-.38-5.72s-.13-3.77-.13-5.72,0-3.86.13-5.73.21-3.77.38-5.72Z"/><path class="bd8b514b-ec6c-46b9-8ed3-aebff6393ce6" d="M1532.38,300V253.06h-5.85q-.26-2.92-.38-5.73c-.09-1.86-.13-3.77-.13-5.72s0-3.86.13-5.72.21-3.78.38-5.73h48.72a36.93,36.93,0,0,1,13.48,2.29,28.4,28.4,0,0,1,9.86,6.3,26.11,26.11,0,0,1,6,9.35,32.17,32.17,0,0,1,2,11.57,37.48,37.48,0,0,1-1.59,10.62,26.29,26.29,0,0,1-5.28,9.74,27.45,27.45,0,0,1-9.67,7.05q-6,2.75-14.88,2.74H1561V300h12q.26,2.92.38,5.72c.09,1.87.13,3.78.13,5.73s0,3.86-.13,5.72-.21,3.77-.38,5.72h-46.43c-.17-1.95-.3-3.85-.38-5.72s-.13-3.77-.13-5.72,0-3.86.13-5.73.21-3.77.38-5.72Zm38.55-32.57a6,6,0,0,0,4.7-2,7.76,7.76,0,0,0,1.78-5.41,7.92,7.92,0,0,0-1.78-5.21,5.79,5.79,0,0,0-4.7-2.16H1561v14.75Z"/><path class="bd8b514b-ec6c-46b9-8ed3-aebff6393ce6" d="M1601.71,300l23.66-69.84h39.56L1687.58,300h6.35q.25,2.92.38,5.72c.09,1.87.13,3.78.13,5.73s0,3.86-.13,5.72-.21,3.77-.38,5.72h-44.26c-.17-1.69-.3-3.41-.39-5.15s-.12-3.45-.12-5.15,0-3.37.12-5,.22-3.33.39-5h5.21l-1.52-6.87h-18.83l-1.53,6.87h5.22c.17,1.7.29,3.37.38,5s.13,3.32.13,5,0,3.42-.13,5.15-.21,3.46-.38,5.15h-43.38c-.17-1.95-.3-3.85-.38-5.72s-.13-3.77-.13-5.72,0-3.86.13-5.73.21-3.77.38-5.72Zm48.21-24.55-5.59-22-6,22Z"/><path class="bd8b514b-ec6c-46b9-8ed3-aebff6393ce6" d="M1706.4,300V253.06h-5.85q-.25-2.92-.39-5.73c-.08-1.86-.12-3.77-.12-5.72s0-3.86.12-5.72.22-3.78.39-5.73h50.88a35.88,35.88,0,0,1,13.29,2.35,29.25,29.25,0,0,1,10,6.43,28.62,28.62,0,0,1,6.29,9.48,29.81,29.81,0,0,1,2.23,11.51,30.12,30.12,0,0,1-.64,5.79,34.63,34.63,0,0,1-2,6.61,31.61,31.61,0,0,1-3.75,6.55,25.1,25.1,0,0,1-5.79,5.6l8.39,15.52h8.14q.26,2.92.39,5.72t.12,5.73c0,1.95,0,3.86-.12,5.72s-.22,3.77-.39,5.72h-30.78l-15.52-33.32H1735V300h5.72q.26,2.92.39,5.72t.12,5.73c0,1.95,0,3.86-.12,5.72s-.22,3.77-.39,5.72h-40.19c-.17-1.95-.3-3.85-.39-5.72s-.12-3.77-.12-5.72,0-3.86.12-5.73.22-3.77.39-5.72Zm40.32-32.57a7.1,7.1,0,0,0,5.28-2,8.32,8.32,0,0,0,0-10.75,6.71,6.71,0,0,0-5-2h-12v14.75Z"/><path class="bd8b514b-ec6c-46b9-8ed3-aebff6393ce6" d="M1800,300V253.06h-5.85q-.26-2.92-.38-5.73c-.09-1.86-.13-3.77-.13-5.72s0-3.86.13-5.72.21-3.78.38-5.73h38.29c.17,1.87.29,3.69.38,5.47s.13,3.56.13,5.34,0,3.59-.13,5.41-.21,3.63-.38,5.41H1829v12.72l15-12.72h-3.94c-.17-1.78-.3-3.58-.38-5.41s-.13-3.63-.13-5.41,0-3.56.13-5.34.21-3.6.38-5.47h41.85q.25,2.93.38,5.73c.09,1.86.13,3.77.13,5.72s0,3.86-.13,5.72-.21,3.78-.38,5.73h-7.25l-17.94,15,20.1,31.93h6.36q.26,2.92.38,5.72c.09,1.87.13,3.78.13,5.73s0,3.86-.13,5.72-.21,3.77-.38,5.72H1853.7l-20.35-35.23-4.32,3.56V300h5.34c.17,1.95.29,3.86.38,5.72s.13,3.78.13,5.73-.05,3.86-.13,5.72-.21,3.77-.38,5.72h-40.2c-.17-1.95-.3-3.85-.38-5.72s-.13-3.77-.13-5.72,0-3.86.13-5.73.21-3.77.38-5.72Z"/></svg>